<svg version="1.1" viewBox="0.0 0.0 720.0 720.0" fill="none" stroke="none" stroke-linecap="square" stroke-miterlimit="10" xmlns:xlink="http://www.w3.org/1999/xlink" xmlns="http://www.w3.org/2000/svg"><clipPath id="p.0"><path d="m0 0l720.0 0l0 720.0l-720.0 0l0 -720.0z" clip-rule="nonzero"/></clipPath><g clip-path="url(#p.0)"><path fill="#c9daf8" d="m0 0l720.0 0l0 720.0l-720.0 0z" fill-rule="evenodd"/><path fill="#2468d9" d="m71.888954 294.23615l53.059837 -107.43306l25.302368 0l-53.05983 107.43306z" fill-rule="evenodd"/><path fill="#2d7dff" d="m139.6598 394.93903l-80.47366 -186.07874l-24.660198 0l80.47366 186.07874z" fill-rule="evenodd"/><path fill="#2468d9" d="m103.35058 355.62228l53.059837 -107.43306l25.302368 0l-53.05983 107.43306z" fill-rule="evenodd"/><path fill="#2d7dff" d="m128.48978 321.78207l269.92126 0l0 11.212585l-269.92126 0z" fill-rule="evenodd"/><path fill="#75a3ef" d="m242.3688 430.7589l-69.88585 -168.34644l-22.240143 0l69.885864 168.34644z" fill-rule="evenodd"/><path fill="#2d7dff" d="m275.64294 294.23615l-53.059845 -107.43306l-25.302368 0l53.05983 107.43306z" fill-rule="evenodd"/><path fill="#75a3ef" d="m207.87209 394.93903l80.47365 -186.07874l24.660217 0l-80.47366 186.07874z" fill-rule="evenodd"/><path fill="#75a3ef" d="m320.38406 448.4912l-26.125793 -186.07874l-24.299408 0l26.125793 186.07874z" fill-rule="evenodd"/><path fill="#2468d9" d="m359.9485 389.61926l76.0 0l0 8.692902l-76.0 0z" fill-rule="evenodd"/><path fill="#75a3ef" d="m307.22095 437.29654l76.0 0l0 11.212585l-76.0 0z" fill-rule="evenodd"/><path fill="#75a3ef" d="m373.11148 398.3183l-26.125793 -144.37794l-24.299408 0l26.125793 144.37794z" fill-rule="evenodd"/><path fill="#2468d9" d="m509.65222 378.40186l-53.059814 -107.433075l-25.302368 0l53.059814 107.433075z" fill-rule="evenodd"/><path fill="#2d7dff" d="m474.40488 346.10736l-76.0 0l0 11.212585l76.0 0z" fill-rule="evenodd"/><path fill="#75a3ef" d="m370.634 453.53848l69.885864 -168.34647l22.240143 0l-69.885864 168.34647z" fill-rule="evenodd"/><path fill="#2468d9" d="m498.12823 259.65643l0 0c18.906128 -15.691101 45.62726 -15.234329 64.04352 1.0947571c18.41626 16.329102 23.48993 44.06375 12.160339 66.47272c-11.329651 22.408966 -35.96338 33.362366 -59.04071 26.25241l5.0440063 -18.2919c14.520203 4.7655334 30.106873 -2.2957153 37.26172 -16.880676c7.154785 -14.58493 3.894287 -32.65045 -7.7946167 -43.18759c-11.688843 -10.537109 -28.565796 -10.624817 -40.34619 -0.20968628z" fill-rule="evenodd"/><path fill="#2d7dff" d="m453.42166 422.2886l69.88583 -168.34645l22.240173 0l-69.885895 168.34645z" fill-rule="evenodd"/><path fill="#2468d9" d="m475.5034 506.39337l80.47366 -159.2756l24.660156 0l-80.47363 159.2756z" fill-rule="evenodd"/><path fill="#2d7dff" d="m605.4448 533.19653l-25.554504 -186.07877l-24.870728 0l25.554504 186.07877z" fill-rule="evenodd"/><path fill="#75a3ef" d="m597.853 515.4733l-80.473694 -186.07874l-24.660187 0l80.47366 186.07874z" fill-rule="evenodd"/><path fill="#75a3ef" d="m580.3402 533.19653l80.47363 -186.07877l24.660217 0l-80.473694 186.07877z" fill-rule="evenodd"/></g></svg>