<svg version="1.1" viewBox="0.0 0.0 720.0 720.0" fill="none" stroke="none" stroke-linecap="square" stroke-miterlimit="10" xmlns:xlink="http://www.w3.org/1999/xlink" xmlns="http://www.w3.org/2000/svg"><clipPath id="p.0"><path d="m0 0l720.0 0l0 720.0l-720.0 0l0 -720.0z" clip-rule="nonzero"/></clipPath><g clip-path="url(#p.0)"><path fill="#000000" fill-opacity="0.0" d="m0 0l720.0 0l0 720.0l-720.0 0z" fill-rule="evenodd"/><path fill="#2468d9" d="m107.0995 323.26114l131.71123 -271.3701l62.80847 0l-131.71124 271.3701z" fill-rule="evenodd"/><path fill="#2d7dff" d="m275.33456 577.6233l-199.76175 -470.01575l-61.214622 0l199.76176 470.01575z" fill-rule="evenodd"/><path fill="#2468d9" d="m185.20016 478.3224l131.71121 -271.37006l62.80847 0l-131.71123 271.37006z" fill-rule="evenodd"/><path fill="#2d7dff" d="m247.60553 392.84793l421.25983 0l0 28.346466l-421.25983 0z" fill-rule="evenodd"/><path fill="#75a3ef" d="m530.3004 668.1086l-173.48413 -425.22836l-55.20877 0l173.48416 425.22836z" fill-rule="evenodd"/><path fill="#2d7dff" d="m612.9005 323.26114l-131.71124 -271.3701l-62.80847 0l131.71124 271.3701z" fill-rule="evenodd"/><path fill="#75a3ef" d="m444.66544 577.6233l199.76175 -470.01575l61.2146 0l-199.76172 470.01575z" fill-rule="evenodd"/></g></svg>