<svg version="1.1" xmlns="http://www.w3.org/2000/svg" xmlns:xlink="http://www.w3.org/1999/xlink" width="181" height="178.71849" viewBox="0,0,181,178.71849"><g transform="translate(-149.5,-90.64075)"><g data-paper-data="{&quot;isPaintingLayer&quot;:true}" fill-rule="nonzero" stroke-linecap="butt" stroke-linejoin="miter" stroke-miterlimit="10" stroke-dasharray="" stroke-dashoffset="0" style="mix-blend-mode: normal"><path d="M149.5,269.35924v-178.71849h181v178.71849z" fill="#66e5ff" stroke="none" stroke-width="NaN"/><g fill="#9966ff" stroke="#000000" stroke-width="5"><path d="M236.98587,177.27235c8.3224,2.7336 16.43859,5.59494 24.80294,8.24163c3.97038,1.25632 11.46597,2.88688 14.14021,5.89477c1.72112,1.93588 3.16333,9.2746 0.85198,11.19147c-1.957,1.62304 -5.41066,1.18308 -8.17594,1.51408c-8.76448,1.04904 -18.78657,0.00408 -27.65652,0.00408c-2.06872,0 -9.93742,0.13779 -11.0236,-0.64921c-2.15286,-1.55989 -2.52476,-4.25612 -3.19966,-6.53593c-0.51052,-1.72458 0.2716,-5.6076 -0.0187,-7.56161c-0.50392,-3.39179 -2.38889,-5.27369 -0.85963,-8.91924c0.60104,-1.4328 2.25758,-2.40753 3.38637,-3.61129l4.17841,-1.18153c0,0 2.5134,0 3.57411,1.61279z"/><path d="M224.28081,228.96243c-10.38369,0 -10.38369,-10.38367 -10.38369,-10.38367c0,-17.99838 0,-41.53472 0,-59.53309c0,0 0,-10.38369 10.38369,-10.38369c10.38369,0 10.38367,10.38369 10.38367,10.38369c0,17.99838 0,35.99675 0,53.99513v5.53798c0,0 0.00002,10.38367 -10.38367,10.38367z"/><path d="M214.58826,174.82886l4.17841,1.18151c1.12879,1.20376 2.78533,2.17851 3.38637,3.61129c1.52926,3.64555 -0.35573,5.52747 -0.85963,8.91924c-0.2903,1.95402 0.49182,5.83702 -0.0187,7.56161c-0.6749,2.27983 -1.04679,4.97606 -3.19966,6.53593c-1.08615,0.787 -8.95487,0.64921 -11.0236,0.64921c-8.86997,0 -18.89204,1.04496 -27.65652,-0.00408c-2.76529,-0.33098 -6.21894,0.10895 -8.17594,-1.51408c-2.31135,-1.91689 -0.86914,-9.25561 0.85198,-11.19149c2.67424,-3.00789 10.16982,-4.63843 14.14021,-5.89477c8.36436,-2.64669 16.48055,-5.50803 24.80294,-8.24163c1.0607,-1.61279 3.57411,-1.61279 3.57411,-1.61279z" data-paper-data="{&quot;index&quot;:null}"/><path d="M215.31426,239.1083c-0.90862,-2.60202 0.47179,-4.31473 0.47179,-4.31473c2.67589,-3.30603 3.97394,-8.57873 7.05692,-10.84667c0.92542,-0.68077 1.95836,-2.19855 2.87522,-1.47783c2.74576,2.15835 2.35027,14.86671 0.38237,17.82974c-1.32211,1.99065 -4.6472,1.24795 -6.26736,1.31984l-1.76231,0.07822v0c-0.5334,0.02368 -1.01369,-0.43171 -1.325,-1.15773c-0.44907,0.07372 -0.99483,-0.18008 -1.4316,-1.43083z"/></g><g fill="#d9c4fe" stroke="none" stroke-width="0.5"><path d="M236.98587,177.27235c8.3224,2.7336 16.43859,5.59494 24.80294,8.24163c3.97038,1.25632 11.46597,2.88688 14.14021,5.89477c1.72112,1.93588 3.16333,9.2746 0.85198,11.19147c-1.957,1.62304 -5.41066,1.18308 -8.17594,1.51408c-8.76448,1.04904 -18.78657,0.00408 -27.65652,0.00408c-2.06872,0 -9.93742,0.13779 -11.0236,-0.64921c-2.15286,-1.55989 -2.52476,-4.25612 -3.19966,-6.53593c-0.51052,-1.72458 0.2716,-5.6076 -0.0187,-7.56161c-0.50392,-3.39179 -2.38889,-5.27369 -0.85963,-8.91924c0.60104,-1.4328 2.25758,-2.40753 3.38637,-3.61129l4.17841,-1.18153c0,0 2.5134,0 3.57411,1.61279z"/><path d="M224.28081,228.96243c-10.38369,0 -10.38369,-10.38367 -10.38369,-10.38367c0,-17.99838 0,-41.53472 0,-59.53309c0,0 0,-10.38369 10.38369,-10.38369c10.38369,0 10.38367,10.38369 10.38367,10.38369c0,17.99838 0,35.99675 0,53.99513v5.53798c0,0 0.00002,10.38367 -10.38367,10.38367z"/><path d="M214.58826,174.82886l4.17841,1.18151c1.12879,1.20376 2.78533,2.17851 3.38637,3.61129c1.52926,3.64555 -0.35573,5.52747 -0.85963,8.91924c-0.2903,1.95402 0.49182,5.83702 -0.0187,7.56161c-0.6749,2.27983 -1.04679,4.97606 -3.19966,6.53593c-1.08615,0.787 -8.95487,0.64921 -11.0236,0.64921c-8.86997,0 -18.89204,1.04496 -27.65652,-0.00408c-2.76529,-0.33098 -6.21894,0.10895 -8.17594,-1.51408c-2.31135,-1.91689 -0.86914,-9.25561 0.85198,-11.19149c2.67424,-3.00789 10.16982,-4.63843 14.14021,-5.89477c8.36436,-2.64669 16.48055,-5.50803 24.80294,-8.24163c1.0607,-1.61279 3.57411,-1.61279 3.57411,-1.61279z" data-paper-data="{&quot;index&quot;:null}"/><path d="M215.31426,239.1083c-0.90862,-2.60202 0.47179,-4.31473 0.47179,-4.31473c2.67589,-3.30603 3.97394,-8.57873 7.05692,-10.84667c0.92542,-0.68077 1.95836,-2.19855 2.87522,-1.47783c2.74576,2.15835 2.35027,14.86671 0.38237,17.82974c-1.32211,1.99065 -4.6472,1.24795 -6.26736,1.31984l-1.76231,0.07822v0c-0.5334,0.02368 -1.01369,-0.43171 -1.325,-1.15773c-0.44907,0.07372 -0.99483,-0.18008 -1.4316,-1.43083z"/></g><g fill="#9966ff" stroke="#000000" stroke-width="5"><path d="M272.64253,142.47091c-4.06131,-1.33946 -8.02189,-2.74115 -12.10372,-4.03821c-1.93757,-0.61568 -5.59589,-1.41615 -6.89965,-2.88617c-0.83909,-0.94611 -1.53881,-4.52967 -0.40929,-5.4641c0.95636,-0.79119 2.64215,-0.57437 3.99233,-0.73431c4.27938,-0.50694 9.17146,0.00915 13.50171,0.01441c1.00994,0.00123 4.85146,-0.06137 5.38126,0.32347c1.05009,0.76281 1.23004,2.0793 1.55817,3.19269c0.24821,0.84223 -0.13593,2.73743 0.00464,3.69153c0.24399,1.65614 1.16311,2.57599 0.41438,4.35481c-0.29428,0.69912 -1.10356,1.174 -1.65534,1.761l-2.04057,0.57434c0,0 -1.22703,-0.00149 -1.7439,-0.78947z"/><path d="M278.87569,117.24373c5.06924,0.00616 5.06308,5.07539 5.06308,5.07539c-0.01067,8.78668 -0.02463,20.27695 -0.0353,29.06361c0,0 -0.00616,5.06924 -5.0754,5.06308c-5.06924,-0.00616 -5.06307,-5.0754 -5.06307,-5.0754c0.01067,-8.78668 0.02135,-17.57335 0.03202,-26.36003l0.00328,-2.7036c0,0 0.00615,-5.06923 5.07539,-5.06307z"/><path d="M283.57543,143.67708l-2.03917,-0.57929c-0.55036,-0.58834 -1.35848,-1.06518 -1.65106,-1.76502c-0.74441,-1.78064 0.17694,-2.69826 0.42495,-4.3538c0.14288,-0.95377 -0.23664,-2.84989 0.01361,-3.69151c0.33083,-1.1126 0.51398,-2.42865 1.56592,-3.1889c0.53072,-0.38356 4.37209,-0.31163 5.38202,-0.3104c4.33024,0.00526 9.22358,-0.49894 13.50171,0.01839c1.3498,0.16323 3.0361,-0.0495 3.99053,0.74401c1.12724,0.93718 0.41882,4.51903 -0.42257,5.4631c-1.30732,1.46684 -4.96758,2.25842 -6.90664,2.8694c-4.08498,1.28714 -8.04895,2.6792 -12.1135,4.0088c-0.51878,0.78673 -1.74581,0.78524 -1.74581,0.78524z" data-paper-data="{&quot;index&quot;:null}"/><path d="M283.25911,112.2959c0.44204,1.27082 -0.23288,2.10614 -0.23288,2.10614c-1.30831,1.61239 -1.94513,4.18571 -3.45157,5.29108c-0.45219,0.3318 -0.95736,1.07215 -1.40454,0.71976c-1.33918,-1.05532 -1.13857,-7.25921 -0.17609,-8.70457c0.64662,-0.97103 2.26947,-0.60648 3.06046,-0.64062l0.8604,-0.03714v0c0.26041,-0.01124 0.49462,0.21136 0.64617,0.56598c0.21928,-0.03572 0.48556,0.0885 0.69805,0.69937z"/></g><g fill="#ff7c00" stroke="none" stroke-width="0.5"><path d="M272.56595,142.41485c-4.04938,-1.37509 -7.99749,-2.81154 -12.06777,-4.14441c-1.93209,-0.63268 -5.58323,-1.46527 -6.87401,-2.94669c-0.83074,-0.95344 -1.49895,-4.54301 -0.36126,-5.46749c0.96327,-0.78276 2.64709,-0.55113 3.99863,-0.6992c4.28367,-0.46931 9.17103,0.08974 13.50106,0.13306c1.00989,0.0101 4.85181,-0.01874 5.37821,0.37075c1.04334,0.772 1.21172,2.09003 1.53005,3.20626c0.24081,0.84438 -0.15997,2.73612 -0.0278,3.69144c0.22943,1.65822 1.14043,2.58611 0.37609,4.35829c-0.30041,0.69651 -1.11383,1.16425 -1.67075,1.74638l-2.04554,0.55638c0,0 -1.22696,-0.01228 -1.73689,-0.80476z"/><path d="M279.02056,117.24342c5.06899,0.0507 5.01828,5.11968 5.01828,5.11968c-0.08788,8.78625 -0.20281,20.27594 -0.2907,29.06218c0,0 -0.0507,5.06899 -5.11969,5.01828c-5.06899,-0.0507 -5.01828,-5.11969 -5.01828,-5.11969c0.08788,-8.78625 0.17577,-17.57248 0.26365,-26.35872l0.02704,-2.70346c0,0 0.0507,-5.06898 5.11968,-5.01828z"/><path d="M283.48782,143.71705l-2.034,-0.59718c-0.54516,-0.59315 -1.34907,-1.07708 -1.63549,-1.77946c-0.72874,-1.78711 0.20064,-2.6966 0.4632,-4.34989c0.15126,-0.95247 -0.21159,-2.85185 0.04605,-3.69125c0.34059,-1.10965 0.53531,-2.42404 1.59388,-3.17501c0.53407,-0.37889 4.37466,-0.2732 5.38454,-0.2631c4.33003,0.04331 9.2276,-0.41787 13.50103,0.13703c1.34831,0.17508 3.03641,-0.02282 3.98384,0.77905c1.11897,0.94706 0.37909,4.52254 -0.47056,5.45917c-1.32016,1.4553 -4.98723,2.21468 -6.93159,2.8086c-4.09614,1.25119 -8.07218,2.60837 -12.14826,3.90219c-0.52568,0.78213 -1.75264,0.76986 -1.75264,0.76986z" data-paper-data="{&quot;index&quot;:null}"/><path d="M283.44728,112.33431c0.43086,1.27466 -0.25138,2.10401 -0.25138,2.10401c-1.32243,1.60083 -1.98184,4.16846 -3.49793,5.26055c-0.45509,0.32781 -0.96674,1.06369 -1.41081,0.70738c-1.32985,-1.06704 -1.07474,-7.26894 -0.09959,-8.70578c0.65513,-0.96531 2.27471,-0.58652 3.06597,-0.6137l0.86069,-0.02958v0c0.2605,-0.00895 0.49274,0.2157 0.64117,0.57164c0.21958,-0.03379 0.48477,0.09277 0.69188,0.70547z"/></g></g></g></svg>