<svg version="1.1" viewBox="0.0 0.0 685.8451443569554 385.2755905511811" fill="none" stroke="none" stroke-linecap="square" stroke-miterlimit="10" xmlns:xlink="http://www.w3.org/1999/xlink" xmlns="http://www.w3.org/2000/svg"><clipPath id="p.0"><path d="m0 0l685.84515 0l0 385.2756l-685.84515 0l0 -385.2756z" clip-rule="nonzero"/></clipPath><g clip-path="url(#p.0)"><path fill="#000000" fill-opacity="0.0" d="m0 0l685.84515 0l0 385.2756l-685.84515 0z" fill-rule="evenodd"/><path fill="#2468d9" d="m53.764282 121.0393l53.059837 -107.43307l25.302376 0l-53.059837 107.43307z" fill-rule="evenodd"/><path fill="#2d7dff" d="m121.53513 221.74219l-80.47366 -186.07874l-24.660198 0l80.47366 186.07874z" fill-rule="evenodd"/><path fill="#2468d9" d="m85.22591 182.42545l53.05983 -107.433075l25.302368 0l-53.059822 107.433075z" fill-rule="evenodd"/><path fill="#2d7dff" d="m110.3651 148.58522l269.92126 0l0 11.212601l-269.92126 0z" fill-rule="evenodd"/><path fill="#75a3ef" d="m224.24413 257.56207l-69.88585 -168.34647l-22.240128 0l69.88585 168.34647z" fill-rule="evenodd"/><path fill="#2d7dff" d="m257.51828 121.0393l-53.059845 -107.43307l-25.302368 0l53.05983 107.43307z" fill-rule="evenodd"/><path fill="#75a3ef" d="m189.74742 221.74219l80.47365 -186.07874l24.660217 0l-80.47368 186.07874z" fill-rule="evenodd"/><path fill="#75a3ef" d="m302.2594 275.29437l-26.125793 -186.07877l-24.299408 0l26.125793 186.07877z" fill-rule="evenodd"/><path fill="#2468d9" d="m341.82382 216.42241l76.0 0l0 8.692917l-76.0 0z" fill-rule="evenodd"/><path fill="#75a3ef" d="m289.09628 264.09967l76.0 0l0 11.212616l-76.0 0z" fill-rule="evenodd"/><path fill="#2468d9" d="m321.04773 80.745186l76.0 0l0 11.212601l-76.0 0z" fill-rule="evenodd"/><path fill="#75a3ef" d="m354.98682 225.12146l-26.125824 -144.37796l-24.299377 0l26.125793 144.37796z" fill-rule="evenodd"/><path fill="#2468d9" d="m491.52756 205.205l-53.059814 -107.433075l-25.302368 0l53.059814 107.433075z" fill-rule="evenodd"/><path fill="#2d7dff" d="m456.2802 172.9105l-76.0 0l0 11.212601l76.0 0z" fill-rule="evenodd"/><path fill="#75a3ef" d="m352.50934 280.34164l69.885864 -168.34647l22.240112 0l-69.88583 168.34647z" fill-rule="evenodd"/><path fill="#2468d9" d="m480.00354 86.459595l0 0c18.906158 -15.691109 45.62726 -15.2343445 64.04352 1.0947495c18.41626 16.329086 23.48999 44.063744 12.160339 66.47271c-11.32959 22.408966 -35.96338 33.36235 -59.04068 26.25241l5.043976 -18.291885c14.520203 4.765518 30.106934 -2.2957306 37.26172 -16.880676c7.154785 -14.584946 3.894287 -32.650475 -7.7945557 -43.1876c-11.688904 -10.537125 -28.565857 -10.624832 -40.346222 -0.20967865z" fill-rule="evenodd"/><path fill="#2d7dff" d="m435.297 249.09177l69.88583 -168.34647l22.240143 0l-69.885864 168.34647z" fill-rule="evenodd"/><path fill="#2468d9" d="m457.3787 333.1965l80.47366 -159.27559l24.660217 0l-80.47366 159.27559z" fill-rule="evenodd"/><path fill="#2d7dff" d="m587.3201 359.99966l-25.554504 -186.07875l-24.870667 0l25.554443 186.07875z" fill-rule="evenodd"/><path fill="#75a3ef" d="m579.72833 342.2765l-80.47366 -186.07874l-24.660187 0l80.47363 186.07874z" fill-rule="evenodd"/><path fill="#75a3ef" d="m562.2155 359.99966l80.473694 -186.07875l24.660156 0l-80.47363 186.07875z" fill-rule="evenodd"/></g></svg>